<?xml version="1.0" standalone="no"?>
<!DOCTYPE svg PUBLIC "-//W3C//DTD SVG 1.1//EN"
  "http://www.w3.org/Graphics/SVG/1.1/DTD/svg11.dtd">
<!-- Created with matplotlib (http://matplotlib.sourceforge.net/) -->
<svg width="354pt" height="342pt" viewBox="0 0 354 342"
   xmlns="http://www.w3.org/2000/svg"
   xmlns:xlink="http://www.w3.org/1999/xlink"
   version="1.1"
   id="svg1">
<filter id="colorAdd"><feComposite in="SourceGraphic" in2="BackgroundImage" operator="arithmetic" k2="1" k3="1"/></filter>
<g id="figure1">
<g id="patch1">
<path style="fill: #ffffff; stroke: #ffffff; stroke-width: 1.000000; stroke-linejoin: round; stroke-linecap: square;  opacity: 1.000000"  d="M0.000000 342.139063L354.982812 342.139063L354.982812 0.000000
L0.000000 0.000000z"/>
</g>
<g id="axes1">
<g id="patch2">
<path style="fill: #ffffff; opacity: 1.000000"  d="M56.893750 303.260938L335.893750 303.260938L335.893750 15.260938
L56.893750 15.260938z"/>
</g>
<g id="line2d1">
<defs>
  <clipPath id="p482271186a3ab2a69803832f8e0b63e7">
<rect x="56.893750" y="15.260938" width="279.000000" height="288.000000"/>
  </clipPath>
</defs><path style="fill: none; stroke: #0000ff; stroke-width: 1.000000; stroke-linejoin: round; stroke-linecap: square;  opacity: 1.000000" clip-path="url(#p482271186a3ab2a69803832f8e0b63e7)" d="M301.018750 159.260938L300.907742 174.793832L300.439781 183.264618
L299.114904 192.560492L296.147244 202.886376L290.397592 214.304273
L280.390212 226.583548L264.547099 239.000173L241.801600 250.190810
L212.546386 258.297200L179.330914 261.603367L146.387861 259.431272
L117.893442 252.565939L96.274557 242.785478L81.818384 231.964235
L73.409000 221.464825L69.464687 212.019415L68.525422 203.886077
L69.466670 197.050729L71.503410 191.375968L74.119464 186.686899
L76.989126 182.812733L79.913874 179.603302L82.777231 176.933123
L85.514486 174.700054L88.093030 172.822030L92.733455 169.882077
L96.706182 167.731611L100.086713 166.125073L104.240077 164.398540
L108.469829 162.894510L112.916844 161.571631L117.076810 160.568571
L121.250429 159.800078L124.881106 159.359504L125.937046 159.285807
L125.937046 159.285807"/>
</g>
<g id="line2d2">
<path style="fill: none; stroke: #008000; stroke-width: 1.000000; stroke-linejoin: round; stroke-linecap: square;  opacity: 1.000000" clip-path="url(#p482271186a3ab2a69803832f8e0b63e7)" d="M125.937046 159.236068L123.112011 158.978444L119.604440 158.448787
L115.498185 157.599559L111.631522 156.594497L107.528106 155.313677
L102.963905 153.620207L98.464905 151.649932L94.799261 149.795900
L90.499817 147.288392L88.093030 145.699845L85.514486 143.821821
L82.777231 141.588752L79.913874 138.918573L76.989126 135.709142
L74.119464 131.834976L71.503410 127.145907L69.466670 121.471146
L68.525422 114.635798L69.464687 106.502460L73.409000 97.057050
L81.818384 86.557640L96.274557 75.736397L117.893442 65.955936
L146.387861 59.090603L179.330914 56.918508L212.546386 60.224675
L241.801600 68.331065L264.547099 79.521702L280.390212 91.938327
L290.397592 104.217602L296.147244 115.635499L299.114904 125.961383
L300.439781 135.257257L300.907742 143.728043L301.018750 159.260938
L301.018750 159.260938"/>
</g>
<g id="matplotlib.axis1">
<g id="xtick1">
<g id="line2d3">
<path style="fill: none; stroke: #000000; stroke-width: 0.500000; stroke-linejoin: round; stroke-linecap: butt; stroke-dasharray: 1.000000,3.000000; stroke-dashoffset: 0.000000; opacity: 1.000000" clip-path="url(#p482271186a3ab2a69803832f8e0b63e7)" d="M56.893750 303.260938L56.893750 15.260938"/>
</g>
<g id="line2d4">
<defs><path id="m30e32995789d870ad79a2e54c91cf9c6" d="M0.000000 0.000000L0.000000 -4.000000"/></defs>
<g ><use style="fill: none; stroke: #000000; stroke-width: 0.500000; stroke-linejoin: round; stroke-linecap: butt;  opacity: 1.000000" xlink:href="#m30e32995789d870ad79a2e54c91cf9c6" x="56.893750" y="303.260938"/>
</g></g>
<g id="line2d5">
<defs><path id="m9281cae24120827b11d5ea8a7ad3e96b" d="M0.000000 0.000000L0.000000 4.000000"/></defs>
<g ><use style="fill: none; stroke: #000000; stroke-width: 0.500000; stroke-linejoin: round; stroke-linecap: butt;  opacity: 1.000000" xlink:href="#m9281cae24120827b11d5ea8a7ad3e96b" x="56.893750" y="15.260938"/>
</g></g>
<g id="text1">
<defs>
<path id="c_6a8d56c819c37117ab4cf023bec22a5a" d="M10.593750 -35.500000l62.593750 0.000000l0.000000 8.296875l-62.593750 0.000000z"/>
<path id="c_7a2040fe3b94fcd41d0a72c84e93b115" d="M31.781250 -66.406250q-7.609375 0.000000 -11.453125 7.500000q-3.828125 7.484375 -3.828125 22.531250q0.000000 14.984375 3.828125 22.484375q3.843750 7.500000 11.453125 7.500000q7.671875 0.000000 11.500000 -7.500000q3.843750 -7.500000 3.843750 -22.484375q0.000000 -15.046875 -3.843750 -22.531250q-3.828125 -7.500000 -11.500000 -7.500000M31.781250 -74.218750q12.265625 0.000000 18.734375 9.703125q6.468750 9.687500 6.468750 28.140625q0.000000 18.406250 -6.468750 28.109375q-6.468750 9.687500 -18.734375 9.687500q-12.250000 0.000000 -18.718750 -9.687500q-6.468750 -9.703125 -6.468750 -28.109375q0.000000 -18.453125 6.468750 -28.140625q6.468750 -9.703125 18.718750 -9.703125"/>
<path id="c_ed3e21196fb739f392806f09ca0594ef" d="M10.687500 -12.406250l10.312500 0.000000l0.000000 12.406250l-10.312500 0.000000z"/>
<path id="c_a0416418d96557a09b8c1332d34883ba" d="M37.796875 -64.312500l-24.906250 38.921875l24.906250 0.000000zM35.203125 -72.906250l12.406250 0.000000l0.000000 47.515625l10.406250 0.000000l0.000000 8.203125l-10.406250 0.000000l0.000000 17.187500l-9.812500 0.000000l0.000000 -17.187500l-32.906250 0.000000l0.000000 -9.515625z"/>
</defs>
<g style="fill: #000000; opacity: 1.000000" transform="translate(43.284375,316.167188)scale(0.120000)">
<use xlink:href="#c_6a8d56c819c37117ab4cf023bec22a5a"/>
<use xlink:href="#c_7a2040fe3b94fcd41d0a72c84e93b115" x="83.789062"/>
<use xlink:href="#c_ed3e21196fb739f392806f09ca0594ef" x="147.412109"/>
<use xlink:href="#c_a0416418d96557a09b8c1332d34883ba" x="179.199219"/>
</g>
</g>
</g>
<g id="xtick2">
<g id="line2d6">
<path style="fill: none; stroke: #000000; stroke-width: 0.500000; stroke-linejoin: round; stroke-linecap: butt; stroke-dasharray: 1.000000,3.000000; stroke-dashoffset: 0.000000; opacity: 1.000000" clip-path="url(#p482271186a3ab2a69803832f8e0b63e7)" d="M91.768750 303.260938L91.768750 15.260938"/>
</g>
<g id="line2d7">
<g ><use style="fill: none; stroke: #000000; stroke-width: 0.500000; stroke-linejoin: round; stroke-linecap: butt;  opacity: 1.000000" xlink:href="#m30e32995789d870ad79a2e54c91cf9c6" x="91.768750" y="303.260938"/>
</g></g>
<g id="line2d8">
<g ><use style="fill: none; stroke: #000000; stroke-width: 0.500000; stroke-linejoin: round; stroke-linecap: butt;  opacity: 1.000000" xlink:href="#m9281cae24120827b11d5ea8a7ad3e96b" x="91.768750" y="15.260938"/>
</g></g>
<g id="text2">
<defs>
<path id="c_ed3f3ed3ebfbd18bcb9c012009a68ad1" d="M19.187500 -8.296875l34.421875 0.000000l0.000000 8.296875l-46.281250 0.000000l0.000000 -8.296875q5.609375 -5.812500 15.296875 -15.593750q9.703125 -9.796875 12.187500 -12.640625q4.734375 -5.312500 6.609375 -9.000000q1.890625 -3.687500 1.890625 -7.250000q0.000000 -5.812500 -4.078125 -9.468750q-4.078125 -3.671875 -10.625000 -3.671875q-4.640625 0.000000 -9.796875 1.609375q-5.140625 1.609375 -11.000000 4.890625l0.000000 -9.968750q5.953125 -2.390625 11.125000 -3.609375q5.187500 -1.218750 9.484375 -1.218750q11.328125 0.000000 18.062500 5.671875q6.734375 5.656250 6.734375 15.125000q0.000000 4.500000 -1.687500 8.531250q-1.671875 4.015625 -6.125000 9.484375q-1.218750 1.421875 -7.765625 8.187500q-6.531250 6.765625 -18.453125 18.921875"/>
</defs>
<g style="fill: #000000; opacity: 1.000000" transform="translate(78.425000,316.167188)scale(0.120000)">
<use xlink:href="#c_6a8d56c819c37117ab4cf023bec22a5a"/>
<use xlink:href="#c_7a2040fe3b94fcd41d0a72c84e93b115" x="83.789062"/>
<use xlink:href="#c_ed3e21196fb739f392806f09ca0594ef" x="147.412109"/>
<use xlink:href="#c_ed3f3ed3ebfbd18bcb9c012009a68ad1" x="179.199219"/>
</g>
</g>
</g>
<g id="xtick3">
<g id="line2d9">
<path style="fill: none; stroke: #000000; stroke-width: 0.500000; stroke-linejoin: round; stroke-linecap: butt; stroke-dasharray: 1.000000,3.000000; stroke-dashoffset: 0.000000; opacity: 1.000000" clip-path="url(#p482271186a3ab2a69803832f8e0b63e7)" d="M126.643750 303.260938L126.643750 15.260938"/>
</g>
<g id="line2d10">
<g ><use style="fill: none; stroke: #000000; stroke-width: 0.500000; stroke-linejoin: round; stroke-linecap: butt;  opacity: 1.000000" xlink:href="#m30e32995789d870ad79a2e54c91cf9c6" x="126.643750" y="303.260938"/>
</g></g>
<g id="line2d11">
<g ><use style="fill: none; stroke: #000000; stroke-width: 0.500000; stroke-linejoin: round; stroke-linecap: butt;  opacity: 1.000000" xlink:href="#m9281cae24120827b11d5ea8a7ad3e96b" x="126.643750" y="15.260938"/>
</g></g>
<g id="text3">
<g style="fill: #000000; opacity: 1.000000" transform="translate(117.893750,316.167188)scale(0.120000)">
<use xlink:href="#c_7a2040fe3b94fcd41d0a72c84e93b115"/>
<use xlink:href="#c_ed3e21196fb739f392806f09ca0594ef" x="63.623047"/>
<use xlink:href="#c_7a2040fe3b94fcd41d0a72c84e93b115" x="95.410156"/>
</g>
</g>
</g>
<g id="xtick4">
<g id="line2d12">
<path style="fill: none; stroke: #000000; stroke-width: 0.500000; stroke-linejoin: round; stroke-linecap: butt; stroke-dasharray: 1.000000,3.000000; stroke-dashoffset: 0.000000; opacity: 1.000000" clip-path="url(#p482271186a3ab2a69803832f8e0b63e7)" d="M161.518750 303.260938L161.518750 15.260938"/>
</g>
<g id="line2d13">
<g ><use style="fill: none; stroke: #000000; stroke-width: 0.500000; stroke-linejoin: round; stroke-linecap: butt;  opacity: 1.000000" xlink:href="#m30e32995789d870ad79a2e54c91cf9c6" x="161.518750" y="303.260938"/>
</g></g>
<g id="line2d14">
<g ><use style="fill: none; stroke: #000000; stroke-width: 0.500000; stroke-linejoin: round; stroke-linecap: butt;  opacity: 1.000000" xlink:href="#m9281cae24120827b11d5ea8a7ad3e96b" x="161.518750" y="15.260938"/>
</g></g>
<g id="text4">
<g style="fill: #000000; opacity: 1.000000" transform="translate(152.971875,316.167188)scale(0.120000)">
<use xlink:href="#c_7a2040fe3b94fcd41d0a72c84e93b115"/>
<use xlink:href="#c_ed3e21196fb739f392806f09ca0594ef" x="63.623047"/>
<use xlink:href="#c_ed3f3ed3ebfbd18bcb9c012009a68ad1" x="95.410156"/>
</g>
</g>
</g>
<g id="xtick5">
<g id="line2d15">
<path style="fill: none; stroke: #000000; stroke-width: 0.500000; stroke-linejoin: round; stroke-linecap: butt; stroke-dasharray: 1.000000,3.000000; stroke-dashoffset: 0.000000; opacity: 1.000000" clip-path="url(#p482271186a3ab2a69803832f8e0b63e7)" d="M196.393750 303.260938L196.393750 15.260938"/>
</g>
<g id="line2d16">
<g ><use style="fill: none; stroke: #000000; stroke-width: 0.500000; stroke-linejoin: round; stroke-linecap: butt;  opacity: 1.000000" xlink:href="#m30e32995789d870ad79a2e54c91cf9c6" x="196.393750" y="303.260938"/>
</g></g>
<g id="line2d17">
<g ><use style="fill: none; stroke: #000000; stroke-width: 0.500000; stroke-linejoin: round; stroke-linecap: butt;  opacity: 1.000000" xlink:href="#m9281cae24120827b11d5ea8a7ad3e96b" x="196.393750" y="15.260938"/>
</g></g>
<g id="text5">
<g style="fill: #000000; opacity: 1.000000" transform="translate(187.581250,316.167188)scale(0.120000)">
<use xlink:href="#c_7a2040fe3b94fcd41d0a72c84e93b115"/>
<use xlink:href="#c_ed3e21196fb739f392806f09ca0594ef" x="63.623047"/>
<use xlink:href="#c_a0416418d96557a09b8c1332d34883ba" x="95.410156"/>
</g>
</g>
</g>
<g id="xtick6">
<g id="line2d18">
<path style="fill: none; stroke: #000000; stroke-width: 0.500000; stroke-linejoin: round; stroke-linecap: butt; stroke-dasharray: 1.000000,3.000000; stroke-dashoffset: 0.000000; opacity: 1.000000" clip-path="url(#p482271186a3ab2a69803832f8e0b63e7)" d="M231.268750 303.260938L231.268750 15.260938"/>
</g>
<g id="line2d19">
<g ><use style="fill: none; stroke: #000000; stroke-width: 0.500000; stroke-linejoin: round; stroke-linecap: butt;  opacity: 1.000000" xlink:href="#m30e32995789d870ad79a2e54c91cf9c6" x="231.268750" y="303.260938"/>
</g></g>
<g id="line2d20">
<g ><use style="fill: none; stroke: #000000; stroke-width: 0.500000; stroke-linejoin: round; stroke-linecap: butt;  opacity: 1.000000" xlink:href="#m9281cae24120827b11d5ea8a7ad3e96b" x="231.268750" y="15.260938"/>
</g></g>
<g id="text6">
<defs>
<path id="c_cc8d6d580d1b10c8632f7a42cd53db8a" d="M33.015625 -40.375000q-6.640625 0.000000 -10.531250 4.546875q-3.875000 4.531250 -3.875000 12.437500q0.000000 7.859375 3.875000 12.437500q3.890625 4.562500 10.531250 4.562500q6.640625 0.000000 10.515625 -4.562500q3.875000 -4.578125 3.875000 -12.437500q0.000000 -7.906250 -3.875000 -12.437500q-3.875000 -4.546875 -10.515625 -4.546875M52.593750 -71.296875l0.000000 8.984375q-3.718750 -1.750000 -7.500000 -2.671875q-3.781250 -0.937500 -7.500000 -0.937500q-9.765625 0.000000 -14.921875 6.593750q-5.140625 6.593750 -5.875000 19.921875q2.875000 -4.250000 7.218750 -6.515625q4.359375 -2.265625 9.578125 -2.265625q10.984375 0.000000 17.359375 6.671875q6.375000 6.656250 6.375000 18.125000q0.000000 11.234375 -6.640625 18.031250q-6.640625 6.781250 -17.671875 6.781250q-12.656250 0.000000 -19.343750 -9.687500q-6.687500 -9.703125 -6.687500 -28.109375q0.000000 -17.281250 8.203125 -27.562500q8.203125 -10.281250 22.015625 -10.281250q3.718750 0.000000 7.500000 0.734375q3.781250 0.734375 7.890625 2.187500"/>
</defs>
<g style="fill: #000000; opacity: 1.000000" transform="translate(222.503125,316.167188)scale(0.120000)">
<use xlink:href="#c_7a2040fe3b94fcd41d0a72c84e93b115"/>
<use xlink:href="#c_ed3e21196fb739f392806f09ca0594ef" x="63.623047"/>
<use xlink:href="#c_cc8d6d580d1b10c8632f7a42cd53db8a" x="95.410156"/>
</g>
</g>
</g>
<g id="xtick7">
<g id="line2d21">
<path style="fill: none; stroke: #000000; stroke-width: 0.500000; stroke-linejoin: round; stroke-linecap: butt; stroke-dasharray: 1.000000,3.000000; stroke-dashoffset: 0.000000; opacity: 1.000000" clip-path="url(#p482271186a3ab2a69803832f8e0b63e7)" d="M266.143750 303.260938L266.143750 15.260938"/>
</g>
<g id="line2d22">
<g ><use style="fill: none; stroke: #000000; stroke-width: 0.500000; stroke-linejoin: round; stroke-linecap: butt;  opacity: 1.000000" xlink:href="#m30e32995789d870ad79a2e54c91cf9c6" x="266.143750" y="303.260938"/>
</g></g>
<g id="line2d23">
<g ><use style="fill: none; stroke: #000000; stroke-width: 0.500000; stroke-linejoin: round; stroke-linecap: butt;  opacity: 1.000000" xlink:href="#m9281cae24120827b11d5ea8a7ad3e96b" x="266.143750" y="15.260938"/>
</g></g>
<g id="text7">
<defs>
<path id="c_bef35738d52871942e50b9de9b122bab" d="M31.781250 -34.625000q-7.031250 0.000000 -11.062500 3.765625q-4.015625 3.765625 -4.015625 10.343750q0.000000 6.593750 4.015625 10.359375q4.031250 3.765625 11.062500 3.765625q7.031250 0.000000 11.078125 -3.781250q4.062500 -3.796875 4.062500 -10.343750q0.000000 -6.578125 -4.031250 -10.343750q-4.015625 -3.765625 -11.109375 -3.765625M21.921875 -38.812500q-6.343750 -1.562500 -9.890625 -5.906250q-3.531250 -4.359375 -3.531250 -10.609375q0.000000 -8.734375 6.218750 -13.812500q6.234375 -5.078125 17.062500 -5.078125q10.890625 0.000000 17.093750 5.078125q6.203125 5.078125 6.203125 13.812500q0.000000 6.250000 -3.546875 10.609375q-3.531250 4.343750 -9.828125 5.906250q7.125000 1.656250 11.093750 6.500000q3.984375 4.828125 3.984375 11.796875q0.000000 10.609375 -6.468750 16.281250q-6.468750 5.656250 -18.531250 5.656250q-12.046875 0.000000 -18.531250 -5.656250q-6.468750 -5.671875 -6.468750 -16.281250q0.000000 -6.968750 4.000000 -11.796875q4.015625 -4.843750 11.140625 -6.500000M18.312500 -54.390625q0.000000 5.656250 3.531250 8.828125q3.546875 3.171875 9.937500 3.171875q6.359375 0.000000 9.937500 -3.171875q3.593750 -3.171875 3.593750 -8.828125q0.000000 -5.671875 -3.593750 -8.843750q-3.578125 -3.171875 -9.937500 -3.171875q-6.390625 0.000000 -9.937500 3.171875q-3.531250 3.171875 -3.531250 8.843750"/>
</defs>
<g style="fill: #000000; opacity: 1.000000" transform="translate(257.409375,316.167188)scale(0.120000)">
<use xlink:href="#c_7a2040fe3b94fcd41d0a72c84e93b115"/>
<use xlink:href="#c_ed3e21196fb739f392806f09ca0594ef" x="63.623047"/>
<use xlink:href="#c_bef35738d52871942e50b9de9b122bab" x="95.410156"/>
</g>
</g>
</g>
<g id="xtick8">
<g id="line2d24">
<path style="fill: none; stroke: #000000; stroke-width: 0.500000; stroke-linejoin: round; stroke-linecap: butt; stroke-dasharray: 1.000000,3.000000; stroke-dashoffset: 0.000000; opacity: 1.000000" clip-path="url(#p482271186a3ab2a69803832f8e0b63e7)" d="M301.018750 303.260938L301.018750 15.260938"/>
</g>
<g id="line2d25">
<g ><use style="fill: none; stroke: #000000; stroke-width: 0.500000; stroke-linejoin: round; stroke-linecap: butt;  opacity: 1.000000" xlink:href="#m30e32995789d870ad79a2e54c91cf9c6" x="301.018750" y="303.260938"/>
</g></g>
<g id="line2d26">
<g ><use style="fill: none; stroke: #000000; stroke-width: 0.500000; stroke-linejoin: round; stroke-linecap: butt;  opacity: 1.000000" xlink:href="#m9281cae24120827b11d5ea8a7ad3e96b" x="301.018750" y="15.260938"/>
</g></g>
<g id="text8">
<defs>
<path id="c_42baa63129a918535c52adb20d687ea7" d="M12.406250 -8.296875l16.109375 0.000000l0.000000 -55.625000l-17.531250 3.515625l0.000000 -8.984375l17.437500 -3.515625l9.859375 0.000000l0.000000 64.609375l16.109375 0.000000l0.000000 8.296875l-41.984375 0.000000z"/>
</defs>
<g style="fill: #000000; opacity: 1.000000" transform="translate(292.526563,316.167188)scale(0.120000)">
<use xlink:href="#c_42baa63129a918535c52adb20d687ea7"/>
<use xlink:href="#c_ed3e21196fb739f392806f09ca0594ef" x="63.623047"/>
<use xlink:href="#c_7a2040fe3b94fcd41d0a72c84e93b115" x="95.410156"/>
</g>
</g>
</g>
<g id="xtick9">
<g id="line2d27">
<path style="fill: none; stroke: #000000; stroke-width: 0.500000; stroke-linejoin: round; stroke-linecap: butt; stroke-dasharray: 1.000000,3.000000; stroke-dashoffset: 0.000000; opacity: 1.000000" clip-path="url(#p482271186a3ab2a69803832f8e0b63e7)" d="M335.893750 303.260938L335.893750 15.260938"/>
</g>
<g id="line2d28">
<g ><use style="fill: none; stroke: #000000; stroke-width: 0.500000; stroke-linejoin: round; stroke-linecap: butt;  opacity: 1.000000" xlink:href="#m30e32995789d870ad79a2e54c91cf9c6" x="335.893750" y="303.260938"/>
</g></g>
<g id="line2d29">
<g ><use style="fill: none; stroke: #000000; stroke-width: 0.500000; stroke-linejoin: round; stroke-linecap: butt;  opacity: 1.000000" xlink:href="#m9281cae24120827b11d5ea8a7ad3e96b" x="335.893750" y="15.260938"/>
</g></g>
<g id="text9">
<g style="fill: #000000; opacity: 1.000000" transform="translate(327.604688,316.167188)scale(0.120000)">
<use xlink:href="#c_42baa63129a918535c52adb20d687ea7"/>
<use xlink:href="#c_ed3e21196fb739f392806f09ca0594ef" x="63.623047"/>
<use xlink:href="#c_ed3f3ed3ebfbd18bcb9c012009a68ad1" x="95.410156"/>
</g>
</g>
</g>
<g id="text10">
<defs>
<path id="c_63dac09e91eeea92f9089b3f6ac43f5d" d="M3.328125 -0.000000l0.000000 -3.515625q10.296875 0.000000 10.296875 -3.171875l0.000000 -54.937500q0.000000 -3.171875 -10.296875 -3.171875l0.000000 -3.515625l31.390625 0.000000q5.609375 0.000000 11.781250 2.031250q6.187500 2.015625 10.328125 6.171875q4.156250 4.156250 4.156250 9.906250q0.000000 4.203125 -2.515625 7.500000q-2.515625 3.296875 -6.453125 5.515625q-3.921875 2.218750 -8.015625 3.203125q4.484375 1.562500 7.843750 4.984375q3.375000 3.406250 4.062500 7.812500l1.421875 8.875000q0.968750 6.015625 2.046875 8.968750q1.078125 2.953125 4.734375 2.953125q3.125000 0.000000 4.656250 -2.906250q1.546875 -2.906250 1.546875 -6.328125q0.000000 -0.343750 0.312500 -0.609375q0.328125 -0.265625 0.671875 -0.265625l0.921875 0.000000q0.968750 0.000000 0.968750 1.312500q0.000000 2.734375 -1.078125 5.359375q-1.062500 2.609375 -3.093750 4.312500q-2.015625 1.718750 -4.812500 1.718750q-7.218750 0.000000 -12.421875 -3.593750q-5.203125 -3.593750 -5.203125 -10.531250l0.000000 -8.875000q0.000000 -4.984375 -3.468750 -8.546875q-3.453125 -3.562500 -8.484375 -3.562500l-12.015625 0.000000l0.000000 26.218750q0.000000 3.171875 10.296875 3.171875l0.000000 3.515625zM22.609375 -35.500000l10.687500 0.000000q8.312500 0.000000 12.656250 -3.343750q4.343750 -3.343750 4.343750 -11.359375q0.000000 -7.953125 -4.296875 -11.265625q-4.296875 -3.328125 -12.703125 -3.328125l-5.609375 0.000000q-1.812500 0.000000 -2.812500 0.156250q-1.000000 0.140625 -1.640625 0.843750q-0.625000 0.703125 -0.625000 2.171875z"/>
<path id="c_d0e9685c400095fadecacf1c50b32774" d="M24.906250 1.125000q-6.109375 0.000000 -11.218750 -3.203125q-5.093750 -3.203125 -8.000000 -8.546875q-2.906250 -5.343750 -2.906250 -11.296875q0.000000 -5.859375 2.656250 -11.125000q2.671875 -5.281250 7.421875 -8.531250q4.765625 -3.250000 10.625000 -3.250000q4.593750 0.000000 7.984375 1.546875q3.390625 1.531250 5.593750 4.265625q2.203125 2.734375 3.312500 6.453125q1.125000 3.703125 1.125000 8.140625q0.000000 1.328125 -1.015625 1.328125l-28.953125 0.000000l0.000000 1.078125q0.000000 8.296875 3.343750 14.250000q3.343750 5.953125 10.906250 5.953125q3.078125 0.000000 5.687500 -1.359375q2.609375 -1.375000 4.531250 -3.812500q1.937500 -2.437500 2.625000 -5.218750q0.093750 -0.343750 0.359375 -0.609375q0.281250 -0.281250 0.609375 -0.281250l0.890625 0.000000q1.015625 0.000000 1.015625 1.281250q-1.406250 5.656250 -6.093750 9.296875q-4.687500 3.640625 -10.500000 3.640625M11.625000 -25.593750l22.796875 0.000000q0.000000 -3.750000 -1.046875 -7.609375q-1.046875 -3.859375 -3.500000 -6.421875q-2.437500 -2.562500 -6.390625 -2.562500q-5.656250 0.000000 -8.765625 5.296875q-3.093750 5.296875 -3.093750 11.296875"/>
<path id="c_875268a6b49edebf59503602ec79e30e" d="M11.812500 25.000000l0.000000 -100.000000l13.671875 0.000000l0.000000 4.000000l-9.656250 0.000000l0.000000 92.000000l9.656250 0.000000l0.000000 4.000000z"/>
<path id="c_8f41fd6b0ed40a4efa3b9e17d88b7a17" d="M14.593750 -21.921875q0.000000 6.203125 2.468750 10.875000q2.468750 4.656250 7.109375 7.203125q4.640625 2.531250 10.734375 2.531250q5.968750 0.000000 11.328125 -2.812500q5.375000 -2.812500 6.750000 -8.078125l2.187500 -8.593750q0.046875 -0.296875 0.093750 -0.609375q0.062500 -0.328125 0.062500 -0.515625q0.000000 -1.031250 -0.640625 -1.171875q-2.484375 -0.687500 -10.015625 -0.687500q-0.968750 0.000000 -0.968750 -1.312500q0.296875 -1.218750 0.531250 -1.703125q0.250000 -0.500000 1.171875 -0.500000l25.781250 0.000000q1.031250 0.000000 1.031250 1.312500q-0.046875 0.250000 -0.203125 0.843750q-0.140625 0.578125 -0.390625 0.968750q-0.234375 0.390625 -0.718750 0.390625q-3.328125 0.000000 -4.875000 0.546875q-1.531250 0.531250 -2.109375 2.828125l-2.203125 8.593750l-2.828125 11.125000q-0.156250 0.687500 -0.875000 0.687500q-0.843750 0.000000 -2.406250 -2.250000q-1.562500 -2.250000 -2.187500 -3.750000q-3.468750 4.093750 -9.281250 6.140625q-5.812500 2.062500 -11.968750 2.062500q-7.750000 0.000000 -13.984375 -3.515625q-6.218750 -3.515625 -9.671875 -9.765625q-3.437500 -6.250000 -3.437500 -14.125000q0.000000 -8.390625 3.734375 -16.562500q3.734375 -8.187500 10.125000 -14.656250q6.406250 -6.468750 14.531250 -10.281250q8.140625 -3.812500 16.437500 -3.812500q3.312500 0.000000 6.359375 1.031250q3.062500 1.031250 5.671875 3.062500q2.609375 2.015625 4.281250 4.703125l7.906250 -8.593750q0.000000 -0.203125 0.484375 -0.203125l0.593750 0.000000q0.390625 0.000000 0.656250 0.328125q0.265625 0.312500 0.265625 0.703125l-6.843750 27.000000q0.000000 0.687500 -0.781250 0.687500l-1.796875 0.000000q-0.781250 0.000000 -0.781250 -1.125000q0.390625 -2.203125 0.390625 -5.171875q0.000000 -4.937500 -1.671875 -9.281250q-1.656250 -4.343750 -5.171875 -6.984375q-3.515625 -2.640625 -8.593750 -2.640625q-8.046875 0.000000 -14.890625 4.078125q-6.828125 4.078125 -11.578125 10.781250q-4.734375 6.687500 -7.281250 14.703125q-2.531250 8.000000 -2.531250 15.515625"/>
<path id="c_06a7a4502300c60b4feec85758ecf628" d="M31.000000 24.812500q-5.562500 -4.406250 -9.593750 -10.093750q-4.015625 -5.687500 -6.593750 -12.140625q-2.562500 -6.437500 -3.828125 -13.468750q-1.265625 -7.031250 -1.265625 -14.109375q0.000000 -7.171875 1.265625 -14.203125q1.265625 -7.031250 3.875000 -13.531250q2.625000 -6.500000 6.671875 -12.156250q4.062500 -5.671875 9.468750 -9.921875q0.000000 -0.187500 0.500000 -0.187500l0.921875 0.000000q0.296875 0.000000 0.531250 0.265625q0.250000 0.265625 0.250000 0.609375q0.000000 0.437500 -0.187500 0.640625q-4.890625 4.781250 -8.140625 10.250000q-3.250000 5.468750 -5.234375 11.656250q-1.968750 6.171875 -2.843750 12.796875q-0.875000 6.609375 -0.875000 13.781250q0.000000 31.781250 16.984375 48.296875q0.296875 0.281250 0.296875 0.828125q0.000000 0.234375 -0.265625 0.546875q-0.265625 0.328125 -0.515625 0.328125l-0.921875 0.000000q-0.500000 0.000000 -0.500000 -0.187500"/>
<path id="c_e86f490bde0b3795f8a34411d82f95e4" d="M12.109375 1.125000q-5.656250 0.000000 -8.171875 -4.140625q-2.515625 -4.156250 -2.515625 -10.171875q0.000000 -3.953125 0.703125 -7.734375q0.703125 -3.781250 2.140625 -7.656250q1.453125 -3.890625 3.296875 -7.281250q1.859375 -3.406250 4.156250 -6.625000q0.437500 -0.625000 1.171875 -0.625000q0.640625 0.000000 1.031250 0.390625q0.390625 0.390625 0.390625 0.921875q0.000000 0.531250 -0.296875 0.968750q-9.125000 12.562500 -9.125000 23.156250q0.000000 4.578125 2.109375 7.875000q2.125000 3.296875 6.484375 3.296875q3.750000 0.000000 6.953125 -2.187500q3.203125 -2.203125 5.546875 -5.625000q0.000000 -1.750000 0.609375 -5.453125q0.609375 -3.718750 1.890625 -6.625000q1.296875 -2.906250 3.109375 -2.906250q2.296875 0.000000 2.296875 2.687500q0.000000 1.562500 -0.671875 3.937500q-0.656250 2.359375 -1.468750 4.406250q-0.796875 2.046875 -1.968750 4.640625q1.171875 7.125000 7.140625 7.125000q3.453125 0.000000 6.937500 -2.000000q3.500000 -2.000000 6.187500 -5.250000q2.687500 -3.250000 4.218750 -7.000000q1.546875 -3.765625 1.546875 -7.125000q0.000000 -3.031250 -0.953125 -4.718750q-0.953125 -1.687500 -2.515625 -3.531250q-1.562500 -1.859375 -1.562500 -2.984375q0.000000 -1.953125 1.656250 -3.562500q1.671875 -1.609375 3.562500 -1.609375q2.453125 0.000000 3.468750 2.218750q1.031250 2.218750 1.031250 5.046875q0.000000 4.593750 -1.828125 11.578125q-1.828125 6.984375 -4.171875 11.625000q-3.234375 6.296875 -8.093750 10.625000q-4.859375 4.312500 -10.906250 4.312500q-3.859375 0.000000 -6.234375 -2.312500q-2.359375 -2.328125 -3.046875 -6.328125q-2.781250 3.953125 -6.343750 6.296875q-3.562500 2.343750 -7.765625 2.343750"/>
<path id="c_b865a8a4692360a5eaaff4ecf56eccf7" d="M6.500000 25.000000q-0.890625 0.000000 -0.890625 -0.875000q0.000000 -0.437500 0.203125 -0.640625q17.093750 -16.703125 17.093750 -48.484375q0.000000 -31.781250 -16.906250 -48.296875q-0.390625 -0.234375 -0.390625 -0.828125q0.000000 -0.343750 0.265625 -0.609375q0.281250 -0.265625 0.625000 -0.265625l0.921875 0.000000q0.296875 0.000000 0.484375 0.187500q7.187500 5.671875 11.968750 13.781250q4.781250 8.093750 7.000000 17.281250q2.234375 9.171875 2.234375 18.750000q0.000000 7.078125 -1.203125 13.937500q-1.203125 6.859375 -3.812500 13.515625q-2.609375 6.671875 -6.609375 12.312500q-4.000000 5.640625 -9.578125 10.046875q-0.187500 0.187500 -0.484375 0.187500z"/>
<path id="c_eb1537f7a8ede276addc63084ba564df" d="M2.203125 25.000000l0.000000 -4.000000l9.718750 0.000000l0.000000 -92.000000l-9.718750 0.000000l0.000000 -4.000000l13.718750 0.000000l0.000000 100.000000z"/>
</defs>
<g id="mathtext1">
<g style="fill: #000000" transform="translate(175.893750,331.339063)">
<use xlink:href="#c_63dac09e91eeea92f9089b3f6ac43f5d" transform="translate(0.000000,-1.531250)scale(0.120000)"/>
<use xlink:href="#c_d0e9685c400095fadecacf1c50b32774" transform="translate(8.830078,-1.531250)scale(0.120000)"/>
<use xlink:href="#c_875268a6b49edebf59503602ec79e30e" transform="translate(14.156250,-3.453125)scale(0.087344)"/>
<use xlink:href="#c_8f41fd6b0ed40a4efa3b9e17d88b7a17" transform="translate(16.574402,-1.531250)scale(0.120000)"/>
<use xlink:href="#c_06a7a4502300c60b4feec85758ecf628" transform="translate(26.007996,-2.750000)scale(0.054531)"/>
<use xlink:href="#c_e86f490bde0b3795f8a34411d82f95e4" transform="translate(28.124802,-1.531250)scale(0.120000)"/>
<use xlink:href="#c_b865a8a4692360a5eaaff4ecf56eccf7" transform="translate(35.589645,-2.750000)scale(0.054531)"/>
<use xlink:href="#c_eb1537f7a8ede276addc63084ba564df" transform="translate(37.706451,-3.453125)scale(0.087344)"/>
</g>
</g>
</g>
</g>
<g id="matplotlib.axis2">
<g id="ytick1">
<g id="line2d30">
<path style="fill: none; stroke: #000000; stroke-width: 0.500000; stroke-linejoin: round; stroke-linecap: butt; stroke-dasharray: 1.000000,3.000000; stroke-dashoffset: 0.000000; opacity: 1.000000" clip-path="url(#p482271186a3ab2a69803832f8e0b63e7)" d="M56.893750 303.260938L335.893750 303.260938"/>
</g>
<g id="line2d31">
<defs><path id="m3400efa6b1638b3fea9e19e898273957" d="M0.000000 0.000000L4.000000 0.000000"/></defs>
<g ><use style="fill: none; stroke: #000000; stroke-width: 0.500000; stroke-linejoin: round; stroke-linecap: butt;  opacity: 1.000000" xlink:href="#m3400efa6b1638b3fea9e19e898273957" x="56.893750" y="303.260938"/>
</g></g>
<g id="line2d32">
<defs><path id="m20b58b2501143cb5e0a5e8f1ef6f1643" d="M0.000000 0.000000L-4.000000 0.000000"/></defs>
<g ><use style="fill: none; stroke: #000000; stroke-width: 0.500000; stroke-linejoin: round; stroke-linecap: butt;  opacity: 1.000000" xlink:href="#m20b58b2501143cb5e0a5e8f1ef6f1643" x="335.893750" y="303.260938"/>
</g></g>
<g id="text11">
<defs>
<path id="c_1260a2df50f305f3db244e29828f968e" d="M10.796875 -72.906250l38.718750 0.000000l0.000000 8.312500l-29.687500 0.000000l0.000000 17.859375q2.140625 -0.734375 4.281250 -1.093750q2.156250 -0.359375 4.312500 -0.359375q12.203125 0.000000 19.328125 6.687500q7.140625 6.687500 7.140625 18.109375q0.000000 11.765625 -7.328125 18.296875q-7.328125 6.515625 -20.656250 6.515625q-4.593750 0.000000 -9.359375 -0.781250q-4.750000 -0.781250 -9.828125 -2.343750l0.000000 -9.921875q4.390625 2.390625 9.078125 3.562500q4.687500 1.171875 9.906250 1.171875q8.453125 0.000000 13.375000 -4.437500q4.937500 -4.437500 4.937500 -12.062500q0.000000 -7.609375 -4.937500 -12.046875q-4.921875 -4.453125 -13.375000 -4.453125q-3.953125 0.000000 -7.890625 0.875000q-3.921875 0.875000 -8.015625 2.734375z"/>
</defs>
<g style="fill: #000000; opacity: 1.000000" transform="translate(26.050000,307.550000)scale(0.120000)">
<use xlink:href="#c_6a8d56c819c37117ab4cf023bec22a5a"/>
<use xlink:href="#c_42baa63129a918535c52adb20d687ea7" x="83.789062"/>
<use xlink:href="#c_ed3e21196fb739f392806f09ca0594ef" x="147.412109"/>
<use xlink:href="#c_1260a2df50f305f3db244e29828f968e" x="179.199219"/>
</g>
</g>
</g>
<g id="ytick2">
<g id="line2d33">
<path style="fill: none; stroke: #000000; stroke-width: 0.500000; stroke-linejoin: round; stroke-linecap: butt; stroke-dasharray: 1.000000,3.000000; stroke-dashoffset: 0.000000; opacity: 1.000000" clip-path="url(#p482271186a3ab2a69803832f8e0b63e7)" d="M56.893750 255.260938L335.893750 255.260938"/>
</g>
<g id="line2d34">
<g ><use style="fill: none; stroke: #000000; stroke-width: 0.500000; stroke-linejoin: round; stroke-linecap: butt;  opacity: 1.000000" xlink:href="#m3400efa6b1638b3fea9e19e898273957" x="56.893750" y="255.260938"/>
</g></g>
<g id="line2d35">
<g ><use style="fill: none; stroke: #000000; stroke-width: 0.500000; stroke-linejoin: round; stroke-linecap: butt;  opacity: 1.000000" xlink:href="#m20b58b2501143cb5e0a5e8f1ef6f1643" x="335.893750" y="255.260938"/>
</g></g>
<g id="text12">
<g style="fill: #000000; opacity: 1.000000" transform="translate(25.800000,259.628125)scale(0.120000)">
<use xlink:href="#c_6a8d56c819c37117ab4cf023bec22a5a"/>
<use xlink:href="#c_42baa63129a918535c52adb20d687ea7" x="83.789062"/>
<use xlink:href="#c_ed3e21196fb739f392806f09ca0594ef" x="147.412109"/>
<use xlink:href="#c_7a2040fe3b94fcd41d0a72c84e93b115" x="179.199219"/>
</g>
</g>
</g>
<g id="ytick3">
<g id="line2d36">
<path style="fill: none; stroke: #000000; stroke-width: 0.500000; stroke-linejoin: round; stroke-linecap: butt; stroke-dasharray: 1.000000,3.000000; stroke-dashoffset: 0.000000; opacity: 1.000000" clip-path="url(#p482271186a3ab2a69803832f8e0b63e7)" d="M56.893750 207.260938L335.893750 207.260938"/>
</g>
<g id="line2d37">
<g ><use style="fill: none; stroke: #000000; stroke-width: 0.500000; stroke-linejoin: round; stroke-linecap: butt;  opacity: 1.000000" xlink:href="#m3400efa6b1638b3fea9e19e898273957" x="56.893750" y="207.260938"/>
</g></g>
<g id="line2d38">
<g ><use style="fill: none; stroke: #000000; stroke-width: 0.500000; stroke-linejoin: round; stroke-linecap: butt;  opacity: 1.000000" xlink:href="#m20b58b2501143cb5e0a5e8f1ef6f1643" x="335.893750" y="207.260938"/>
</g></g>
<g id="text13">
<g style="fill: #000000; opacity: 1.000000" transform="translate(26.050000,211.628125)scale(0.120000)">
<use xlink:href="#c_6a8d56c819c37117ab4cf023bec22a5a"/>
<use xlink:href="#c_7a2040fe3b94fcd41d0a72c84e93b115" x="83.789062"/>
<use xlink:href="#c_ed3e21196fb739f392806f09ca0594ef" x="147.412109"/>
<use xlink:href="#c_1260a2df50f305f3db244e29828f968e" x="179.199219"/>
</g>
</g>
</g>
<g id="ytick4">
<g id="line2d39">
<path style="fill: none; stroke: #000000; stroke-width: 0.500000; stroke-linejoin: round; stroke-linecap: butt; stroke-dasharray: 1.000000,3.000000; stroke-dashoffset: 0.000000; opacity: 1.000000" clip-path="url(#p482271186a3ab2a69803832f8e0b63e7)" d="M56.893750 159.260938L335.893750 159.260938"/>
</g>
<g id="line2d40">
<g ><use style="fill: none; stroke: #000000; stroke-width: 0.500000; stroke-linejoin: round; stroke-linecap: butt;  opacity: 1.000000" xlink:href="#m3400efa6b1638b3fea9e19e898273957" x="56.893750" y="159.260938"/>
</g></g>
<g id="line2d41">
<g ><use style="fill: none; stroke: #000000; stroke-width: 0.500000; stroke-linejoin: round; stroke-linecap: butt;  opacity: 1.000000" xlink:href="#m20b58b2501143cb5e0a5e8f1ef6f1643" x="335.893750" y="159.260938"/>
</g></g>
<g id="text14">
<g style="fill: #000000; opacity: 1.000000" transform="translate(35.393750,163.628125)scale(0.120000)">
<use xlink:href="#c_7a2040fe3b94fcd41d0a72c84e93b115"/>
<use xlink:href="#c_ed3e21196fb739f392806f09ca0594ef" x="63.623047"/>
<use xlink:href="#c_7a2040fe3b94fcd41d0a72c84e93b115" x="95.410156"/>
</g>
</g>
</g>
<g id="ytick5">
<g id="line2d42">
<path style="fill: none; stroke: #000000; stroke-width: 0.500000; stroke-linejoin: round; stroke-linecap: butt; stroke-dasharray: 1.000000,3.000000; stroke-dashoffset: 0.000000; opacity: 1.000000" clip-path="url(#p482271186a3ab2a69803832f8e0b63e7)" d="M56.893750 111.260938L335.893750 111.260938"/>
</g>
<g id="line2d43">
<g ><use style="fill: none; stroke: #000000; stroke-width: 0.500000; stroke-linejoin: round; stroke-linecap: butt;  opacity: 1.000000" xlink:href="#m3400efa6b1638b3fea9e19e898273957" x="56.893750" y="111.260938"/>
</g></g>
<g id="line2d44">
<g ><use style="fill: none; stroke: #000000; stroke-width: 0.500000; stroke-linejoin: round; stroke-linecap: butt;  opacity: 1.000000" xlink:href="#m20b58b2501143cb5e0a5e8f1ef6f1643" x="335.893750" y="111.260938"/>
</g></g>
<g id="text15">
<g style="fill: #000000; opacity: 1.000000" transform="translate(35.643750,115.628125)scale(0.120000)">
<use xlink:href="#c_7a2040fe3b94fcd41d0a72c84e93b115"/>
<use xlink:href="#c_ed3e21196fb739f392806f09ca0594ef" x="63.623047"/>
<use xlink:href="#c_1260a2df50f305f3db244e29828f968e" x="95.410156"/>
</g>
</g>
</g>
<g id="ytick6">
<g id="line2d45">
<path style="fill: none; stroke: #000000; stroke-width: 0.500000; stroke-linejoin: round; stroke-linecap: butt; stroke-dasharray: 1.000000,3.000000; stroke-dashoffset: 0.000000; opacity: 1.000000" clip-path="url(#p482271186a3ab2a69803832f8e0b63e7)" d="M56.893750 63.260938L335.893750 63.260938"/>
</g>
<g id="line2d46">
<g ><use style="fill: none; stroke: #000000; stroke-width: 0.500000; stroke-linejoin: round; stroke-linecap: butt;  opacity: 1.000000" xlink:href="#m3400efa6b1638b3fea9e19e898273957" x="56.893750" y="63.260938"/>
</g></g>
<g id="line2d47">
<g ><use style="fill: none; stroke: #000000; stroke-width: 0.500000; stroke-linejoin: round; stroke-linecap: butt;  opacity: 1.000000" xlink:href="#m20b58b2501143cb5e0a5e8f1ef6f1643" x="335.893750" y="63.260938"/>
</g></g>
<g id="text16">
<g style="fill: #000000; opacity: 1.000000" transform="translate(35.909375,67.628125)scale(0.120000)">
<use xlink:href="#c_42baa63129a918535c52adb20d687ea7"/>
<use xlink:href="#c_ed3e21196fb739f392806f09ca0594ef" x="63.623047"/>
<use xlink:href="#c_7a2040fe3b94fcd41d0a72c84e93b115" x="95.410156"/>
</g>
</g>
</g>
<g id="ytick7">
<g id="line2d48">
<path style="fill: none; stroke: #000000; stroke-width: 0.500000; stroke-linejoin: round; stroke-linecap: butt; stroke-dasharray: 1.000000,3.000000; stroke-dashoffset: 0.000000; opacity: 1.000000" clip-path="url(#p482271186a3ab2a69803832f8e0b63e7)" d="M56.893750 15.260938L335.893750 15.260938"/>
</g>
<g id="line2d49">
<g ><use style="fill: none; stroke: #000000; stroke-width: 0.500000; stroke-linejoin: round; stroke-linecap: butt;  opacity: 1.000000" xlink:href="#m3400efa6b1638b3fea9e19e898273957" x="56.893750" y="15.260938"/>
</g></g>
<g id="line2d50">
<g ><use style="fill: none; stroke: #000000; stroke-width: 0.500000; stroke-linejoin: round; stroke-linecap: butt;  opacity: 1.000000" xlink:href="#m20b58b2501143cb5e0a5e8f1ef6f1643" x="335.893750" y="15.260938"/>
</g></g>
<g id="text17">
<g style="fill: #000000; opacity: 1.000000" transform="translate(36.159375,19.550000)scale(0.120000)">
<use xlink:href="#c_42baa63129a918535c52adb20d687ea7"/>
<use xlink:href="#c_ed3e21196fb739f392806f09ca0594ef" x="63.623047"/>
<use xlink:href="#c_1260a2df50f305f3db244e29828f968e" x="95.410156"/>
</g>
</g>
</g>
<g id="text18">
<defs>
<path id="c_290de001110bbfe9b991538e8cdd47a8" d="M2.593750 -0.000000l0.000000 -3.515625q10.781250 0.000000 10.781250 -3.171875l0.000000 -54.937500q0.000000 -3.171875 -10.781250 -3.171875l0.000000 -3.515625l30.906250 0.000000l0.000000 3.515625q-10.796875 0.000000 -10.796875 3.171875l0.000000 54.937500q0.000000 3.171875 10.796875 3.171875l0.000000 3.515625z"/>
<path id="c_4fabef8985c318b4fd571dae195dd082" d="M2.984375 -0.000000l0.000000 -3.515625q3.406250 0.000000 5.609375 -0.531250q2.203125 -0.546875 2.203125 -2.640625l0.000000 -27.296875q0.000000 -2.687500 -0.812500 -3.875000q-0.796875 -1.203125 -2.312500 -1.468750q-1.515625 -0.265625 -4.687500 -0.265625l0.000000 -3.515625l14.500000 -1.078125l0.000000 9.765625q2.000000 -4.296875 5.921875 -7.031250q3.937500 -2.734375 8.578125 -2.734375q11.515625 0.000000 13.531250 9.375000q2.000000 -4.203125 5.843750 -6.781250q3.859375 -2.593750 8.453125 -2.593750q4.546875 0.000000 7.640625 1.468750q3.109375 1.453125 4.671875 4.468750q1.562500 3.000000 1.562500 7.531250l0.000000 24.031250q0.000000 2.093750 2.218750 2.640625q2.218750 0.531250 5.593750 0.531250l0.000000 3.515625l-22.906250 0.000000l0.000000 -3.515625q3.421875 0.000000 5.609375 -0.531250q2.203125 -0.546875 2.203125 -2.640625l0.000000 -23.734375q0.000000 -5.031250 -1.421875 -8.109375q-1.406250 -3.078125 -5.796875 -3.078125q-5.765625 0.000000 -9.531250 4.640625q-3.750000 4.640625 -3.750000 10.546875l0.000000 19.734375q0.000000 2.093750 2.187500 2.640625q2.203125 0.531250 5.625000 0.531250l0.000000 3.515625l-22.906250 0.000000l0.000000 -3.515625q3.421875 0.000000 5.609375 -0.531250q2.203125 -0.546875 2.203125 -2.640625l0.000000 -23.734375q0.000000 -4.875000 -1.421875 -8.031250q-1.406250 -3.156250 -5.812500 -3.156250q-5.796875 0.000000 -9.546875 4.640625q-3.734375 4.640625 -3.734375 10.546875l0.000000 19.734375q0.000000 2.093750 2.203125 2.640625q2.203125 0.531250 5.562500 0.531250l0.000000 3.515625z"/>
</defs>
<g id="mathtext2">
<g style="fill: #000000" transform="translate(20.800000,179.760938)rotate(-90.0)">
<use xlink:href="#c_290de001110bbfe9b991538e8cdd47a8" transform="translate(0.000000,-1.531250)scale(0.120000)"/>
<use xlink:href="#c_4fabef8985c318b4fd571dae195dd082" transform="translate(4.330078,-1.531250)scale(0.120000)"/>
<use xlink:href="#c_875268a6b49edebf59503602ec79e30e" transform="translate(14.326172,-3.453125)scale(0.087344)"/>
<use xlink:href="#c_8f41fd6b0ed40a4efa3b9e17d88b7a17" transform="translate(16.744324,-1.531250)scale(0.120000)"/>
<use xlink:href="#c_06a7a4502300c60b4feec85758ecf628" transform="translate(26.177917,-2.750000)scale(0.054531)"/>
<use xlink:href="#c_e86f490bde0b3795f8a34411d82f95e4" transform="translate(28.294724,-1.531250)scale(0.120000)"/>
<use xlink:href="#c_b865a8a4692360a5eaaff4ecf56eccf7" transform="translate(35.759567,-2.750000)scale(0.054531)"/>
<use xlink:href="#c_eb1537f7a8ede276addc63084ba564df" transform="translate(37.876373,-3.453125)scale(0.087344)"/>
</g>
</g>
</g>
</g>
<g id="patch3">
<path style="fill: none; stroke: #000000; stroke-width: 1.000000; stroke-linejoin: round; stroke-linecap: square;  opacity: 1.000000"  d="M56.893750 15.260938L335.893750 15.260938"/>
</g>
<g id="patch4">
<path style="fill: none; stroke: #000000; stroke-width: 1.000000; stroke-linejoin: round; stroke-linecap: square;  opacity: 1.000000"  d="M335.893750 303.260938L335.893750 15.260938"/>
</g>
<g id="patch5">
<path style="fill: none; stroke: #000000; stroke-width: 1.000000; stroke-linejoin: round; stroke-linecap: square;  opacity: 1.000000"  d="M56.893750 303.260938L335.893750 303.260938"/>
</g>
<g id="patch6">
<path style="fill: none; stroke: #000000; stroke-width: 1.000000; stroke-linejoin: round; stroke-linecap: square;  opacity: 1.000000"  d="M56.893750 303.260938L56.893750 15.260938"/>
</g>
<g id="text19">
<defs>
<path id="c_75c38898ea241ebcbd0918e2320a1d61" d="M8.687500 -6.109375q2.687500 4.593750 10.796875 4.593750q3.515625 0.000000 6.687500 -1.187500q3.171875 -1.203125 5.250000 -3.593750q2.078125 -2.390625 2.078125 -5.812500q0.000000 -2.593750 -1.859375 -4.250000q-1.859375 -1.656250 -4.546875 -2.250000l-5.406250 -1.062500q-3.718750 -0.937500 -6.109375 -3.468750q-2.390625 -2.546875 -2.390625 -6.156250q0.000000 -4.437500 2.406250 -7.859375q2.421875 -3.421875 6.375000 -5.218750q3.953125 -1.812500 8.203125 -1.812500q4.546875 0.000000 8.125000 2.171875q3.593750 2.171875 3.593750 6.421875q0.000000 2.296875 -1.296875 4.062500q-1.281250 1.750000 -3.578125 1.750000q-1.328125 0.000000 -2.281250 -0.859375q-0.937500 -0.859375 -0.937500 -2.171875q0.000000 -1.171875 0.656250 -2.265625q0.656250 -1.109375 1.750000 -1.765625q1.109375 -0.656250 2.281250 -0.656250q-0.890625 -2.156250 -3.312500 -3.125000q-2.406250 -0.984375 -5.187500 -0.984375q-2.546875 0.000000 -5.093750 1.031250q-2.531250 1.031250 -4.078125 3.015625q-1.531250 1.968750 -1.531250 4.656250q0.000000 1.796875 1.265625 3.171875q1.281250 1.359375 3.140625 1.953125l5.812500 1.171875q2.781250 0.578125 5.093750 2.078125q2.328125 1.484375 3.656250 3.765625q1.343750 2.265625 1.343750 5.187500q0.000000 3.718750 -2.078125 7.328125q-2.062500 3.609375 -5.093750 5.765625q-5.328125 3.609375 -13.031250 3.609375q-5.328125 0.000000 -9.781250 -2.437500q-4.437500 -2.453125 -4.437500 -7.281250q0.000000 -2.734375 1.578125 -4.750000q1.593750 -2.031250 4.328125 -2.031250q1.625000 0.000000 2.718750 0.984375q1.093750 0.968750 1.093750 2.578125q0.000000 2.296875 -1.718750 4.000000q-1.703125 1.703125 -3.984375 1.703125z"/>
<path id="c_7bbc93c01755cdeb977d08bdfb9ce616" d="M7.515625 -13.281250q-0.828125 0.000000 -1.375000 -0.625000q-0.531250 -0.640625 -0.531250 -1.375000q0.000000 -0.828125 0.531250 -1.406250q0.546875 -0.593750 1.375000 -0.593750l62.796875 0.000000q0.734375 0.000000 1.265625 0.593750q0.546875 0.578125 0.546875 1.406250q0.000000 0.734375 -0.546875 1.375000q-0.531250 0.625000 -1.265625 0.625000zM7.515625 -32.718750q-0.828125 0.000000 -1.375000 -0.578125q-0.531250 -0.593750 -0.531250 -1.421875q0.000000 -0.734375 0.531250 -1.359375q0.546875 -0.640625 1.375000 -0.640625l62.796875 0.000000q0.734375 0.000000 1.265625 0.640625q0.546875 0.625000 0.546875 1.359375q0.000000 0.828125 -0.546875 1.421875q-0.531250 0.578125 -1.265625 0.578125z"/>
<path id="c_1a459ac34855d27ec37ccb0e66298d36" d="M9.281250 -0.000000l0.000000 -3.515625q12.500000 0.000000 12.500000 -3.171875l0.000000 -52.500000q-5.171875 2.500000 -13.093750 2.500000l0.000000 -3.515625q12.265625 0.000000 18.515625 -6.406250l1.406250 0.000000q0.343750 0.000000 0.656250 0.281250q0.328125 0.265625 0.328125 0.609375l0.000000 59.031250q0.000000 3.171875 12.500000 3.171875l0.000000 3.515625z"/>
<path id="c_1210e7f4d85518601ea3049211d562d0" d="M4.984375 -0.000000l0.000000 -2.687500q0.000000 -0.250000 0.187500 -0.531250l15.531250 -17.187500q3.515625 -3.812500 5.703125 -6.390625q2.203125 -2.593750 4.343750 -5.968750q2.156250 -3.375000 3.406250 -6.859375q1.250000 -3.484375 1.250000 -7.390625q0.000000 -4.109375 -1.515625 -7.843750q-1.515625 -3.734375 -4.515625 -5.984375q-3.000000 -2.250000 -7.250000 -2.250000q-4.343750 0.000000 -7.812500 2.625000q-3.468750 2.609375 -4.890625 6.750000q0.390625 -0.093750 1.078125 -0.093750q2.250000 0.000000 3.828125 1.515625q1.593750 1.515625 1.593750 3.906250q0.000000 2.296875 -1.593750 3.890625q-1.578125 1.578125 -3.828125 1.578125q-2.343750 0.000000 -3.937500 -1.625000q-1.578125 -1.640625 -1.578125 -3.843750q0.000000 -3.765625 1.406250 -7.046875q1.421875 -3.296875 4.078125 -5.859375q2.671875 -2.578125 6.015625 -3.937500q3.343750 -1.375000 7.093750 -1.375000q5.718750 0.000000 10.640625 2.421875q4.937500 2.421875 7.812500 6.843750q2.890625 4.406250 2.890625 10.328125q0.000000 4.343750 -1.906250 8.250000q-1.906250 3.906250 -4.890625 7.109375q-2.968750 3.187500 -7.609375 7.250000q-4.640625 4.046875 -6.093750 5.406250l-11.328125 10.890625l9.609375 0.000000q7.078125 0.000000 11.843750 -0.109375q4.765625 -0.125000 5.046875 -0.375000q1.171875 -1.265625 2.406250 -9.234375l2.921875 0.000000l-2.828125 17.828125z"/>
<path id="c_6a3a612567bb59e037cbf13158797929" d="M7.515625 -23.000000q-0.828125 0.000000 -1.375000 -0.625000q-0.531250 -0.640625 -0.531250 -1.375000q0.000000 -0.734375 0.531250 -1.359375q0.546875 -0.640625 1.375000 -0.640625l29.406250 0.000000l0.000000 -29.500000q0.000000 -0.781250 0.578125 -1.281250q0.593750 -0.515625 1.421875 -0.515625q0.734375 0.000000 1.359375 0.515625q0.640625 0.500000 0.640625 1.281250l0.000000 29.500000l29.390625 0.000000q0.734375 0.000000 1.265625 0.640625q0.546875 0.625000 0.546875 1.359375q0.000000 0.734375 -0.546875 1.375000q-0.531250 0.625000 -1.265625 0.625000l-29.390625 0.000000l0.000000 29.500000q0.000000 0.781250 -0.640625 1.281250q-0.625000 0.515625 -1.359375 0.515625q-0.828125 0.000000 -1.421875 -0.515625q-0.578125 -0.500000 -0.578125 -1.281250l0.000000 -29.500000z"/>
</defs>
<g id="mathtext3">
<g style="fill: #000000" transform="translate(231.268750,289.260938)">
<use xlink:href="#c_8f41fd6b0ed40a4efa3b9e17d88b7a17" transform="translate(0.000000,-10.378125)scale(0.150000)"/>
<use xlink:href="#c_06a7a4502300c60b4feec85758ecf628" transform="translate(11.791992,-10.378125)scale(0.150000)"/>
<use xlink:href="#c_75c38898ea241ebcbd0918e2320a1d61" transform="translate(17.614746,-10.378125)scale(0.150000)"/>
<use xlink:href="#c_b865a8a4692360a5eaaff4ecf56eccf7" transform="translate(24.631348,-10.378125)scale(0.150000)"/>
<use xlink:href="#c_7bbc93c01755cdeb977d08bdfb9ce616" transform="translate(33.087891,-10.378125)scale(0.150000)"/>
<use xlink:href="#c_1a459ac34855d27ec37ccb0e66298d36" transform="translate(64.690430,-16.010938)scale(0.105000)"/>
<use xlink:href="#c_75c38898ea241ebcbd0918e2320a1d61" transform="translate(45.690430,-1.966953)scale(0.105000)"/>
<use xlink:href="#c_1210e7f4d85518601ea3049211d562d0" transform="translate(50.602051,-6.431094)scale(0.073500)"/>
<use xlink:href="#c_6a3a612567bb59e037cbf13158797929" transform="translate(59.481359,-1.966953)scale(0.105000)"/>
<use xlink:href="#c_75c38898ea241ebcbd0918e2320a1d61" transform="translate(68.303137,-1.966953)scale(0.105000)"/>
<use xlink:href="#c_6a3a612567bb59e037cbf13158797929" transform="translate(75.058410,-1.966953)scale(0.105000)"/>
<use xlink:href="#c_1a459ac34855d27ec37ccb0e66298d36" transform="translate(83.880187,-1.966953)scale(0.105000)"/>
</g>
<g style="fill: #000000; stroke: none" transform="translate(231.268750,289.260938)">
<rect x="45.690430" y="-13.260938" width="43.439758" height="0.937500" fill="black" stroke="none" /></g></g>
</g>
<g id="legend1">
<g id="line2d51">
<path style="fill: none; stroke: #0000ff; stroke-width: 1.000000; stroke-linejoin: round; stroke-linecap: square;  opacity: 1.000000"  d="M237.933750 33.260937L258.093750 33.260937"/>
</g>
<g id="line2d52">
</g>
<g id="text20">
<defs>
<path id="c_f47f2818876b2f1a61c47f270461e46e" d="M25.000000 2.203125q-12.250000 0.000000 -16.671875 -10.078125q-4.421875 -10.093750 -4.421875 -24.015625q0.000000 -8.687500 1.578125 -16.343750q1.593750 -7.671875 6.296875 -13.015625q4.718750 -5.359375 13.218750 -5.359375q6.593750 0.000000 10.781250 3.234375q4.203125 3.218750 6.406250 8.328125q2.203125 5.093750 3.000000 10.937500q0.812500 5.828125 0.812500 12.218750q0.000000 8.593750 -1.593750 16.093750q-1.578125 7.500000 -6.218750 12.750000q-4.640625 5.250000 -13.187500 5.250000M25.000000 -0.390625q5.562500 0.000000 8.296875 -5.703125q2.734375 -5.718750 3.375000 -12.656250q0.640625 -6.937500 0.640625 -14.750000q0.000000 -7.515625 -0.640625 -13.859375q-0.640625 -6.359375 -3.359375 -11.500000q-2.703125 -5.156250 -8.312500 -5.156250q-5.656250 0.000000 -8.390625 5.187500q-2.734375 5.171875 -3.375000 11.500000q-0.640625 6.312500 -0.640625 13.828125q0.000000 5.562500 0.265625 10.500000q0.281250 4.937500 1.453125 10.187500q1.171875 5.250000 3.781250 8.843750q2.609375 3.578125 6.906250 3.578125"/>
<path id="c_37988b1a25cfc4d8a078457ec29628d4" d="M10.203125 13.718750q-0.828125 0.000000 -1.375000 -0.640625q-0.531250 -0.625000 -0.531250 -1.359375q0.000000 -0.828125 0.531250 -1.421875q0.546875 -0.578125 1.375000 -0.578125l57.375000 0.000000q0.781250 0.000000 1.296875 0.578125q0.515625 0.593750 0.515625 1.421875q0.000000 0.734375 -0.515625 1.359375q-0.515625 0.640625 -1.296875 0.640625zM9.281250 -33.015625q-0.984375 -0.281250 -0.984375 -1.703125q0.000000 -1.265625 1.328125 -1.812500l57.078125 -26.953125q0.187500 -0.140625 0.687500 -0.140625q0.828125 0.000000 1.406250 0.593750q0.593750 0.578125 0.593750 1.406250q0.000000 1.328125 -1.171875 1.812500l-53.234375 25.093750l53.515625 25.296875q0.890625 0.484375 0.890625 1.703125q0.000000 0.875000 -0.593750 1.437500q-0.578125 0.562500 -1.406250 0.562500q-0.500000 0.000000 -0.687500 -0.187500z"/>
<path id="c_04111b2b7db28f5ad55cf0eace59d749" d="M24.609375 1.125000q-5.656250 0.000000 -10.031250 -3.312500q-4.375000 -3.328125 -6.671875 -8.593750q-2.296875 -5.281250 -2.296875 -10.796875q0.000000 -4.250000 1.343750 -8.296875q1.343750 -4.062500 3.875000 -7.281250q2.546875 -3.218750 6.140625 -5.125000q3.593750 -1.906250 7.937500 -1.906250q4.484375 0.000000 8.687500 1.718750q4.203125 1.703125 7.687500 4.531250q3.500000 2.828125 6.515625 6.546875l2.984375 4.000000q2.984375 -4.734375 6.593750 -8.468750q3.609375 -3.734375 8.171875 -6.031250q4.578125 -2.296875 9.750000 -2.296875q4.343750 0.000000 7.906250 1.937500q3.562500 1.921875 6.046875 5.250000q2.500000 3.312500 3.765625 7.343750q1.265625 4.015625 1.265625 8.078125q0.000000 5.656250 -2.375000 10.906250q-2.359375 5.250000 -6.734375 8.531250q-4.359375 3.265625 -10.171875 3.265625q-6.546875 0.000000 -12.437500 -3.515625q-5.875000 -3.515625 -10.468750 -9.328125l-2.968750 -4.000000q-4.593750 7.468750 -10.828125 12.156250q-6.218750 4.687500 -13.687500 4.687500M23.578125 -2.390625q12.703125 0.000000 22.718750 -17.000000l-5.281250 -6.734375q-4.593750 -6.046875 -8.546875 -9.468750q-3.953125 -3.421875 -9.171875 -3.421875q-4.453125 0.000000 -7.890625 2.515625q-3.437500 2.515625 -5.328125 6.578125q-1.875000 4.046875 -1.875000 8.437500q0.000000 3.375000 1.046875 6.765625q1.046875 3.390625 3.046875 6.171875q2.015625 2.781250 4.859375 4.468750q2.859375 1.687500 6.421875 1.687500M58.890625 -17.000000q4.593750 6.062500 8.546875 9.484375q3.953125 3.406250 9.171875 3.406250q3.328125 0.000000 6.109375 -1.453125q2.781250 -1.468750 4.796875 -3.953125q2.031250 -2.500000 3.109375 -5.625000q1.078125 -3.125000 1.078125 -6.437500q0.000000 -4.640625 -1.859375 -9.062500q-1.859375 -4.421875 -5.359375 -7.250000q-3.484375 -2.828125 -8.171875 -2.828125q-12.687500 0.000000 -22.703125 17.031250z"/>
</defs>
<g id="mathtext4">
<g style="fill: #000000" transform="translate(273.933750,40.300937)">
<use xlink:href="#c_f47f2818876b2f1a61c47f270461e46e" transform="translate(0.000000,-2.343750)scale(0.099960)"/>
<use xlink:href="#c_37988b1a25cfc4d8a078457ec29628d4" transform="translate(6.745303,-2.343750)scale(0.099960)"/>
<use xlink:href="#c_e86f490bde0b3795f8a34411d82f95e4" transform="translate(14.592169,-2.343750)scale(0.099960)"/>
<use xlink:href="#c_37988b1a25cfc4d8a078457ec29628d4" transform="translate(22.556268,-2.343750)scale(0.099960)"/>
<use xlink:href="#c_04111b2b7db28f5ad55cf0eace59d749" transform="translate(30.403134,-2.343750)scale(0.099960)"/>
</g>
</g>
</g>
<g id="line2d53">
<path style="fill: none; stroke: #008000; stroke-width: 1.000000; stroke-linejoin: round; stroke-linecap: square;  opacity: 1.000000"  d="M237.933750 52.619062L258.093750 52.619062"/>
</g>
<g id="line2d54">
</g>
<g id="text21">
<defs>
<path id="c_61c20b1e4c944de7566e5fda525fb070" d="M10.203125 -23.000000q-0.828125 0.000000 -1.375000 -0.625000q-0.531250 -0.640625 -0.531250 -1.375000q0.000000 -0.734375 0.531250 -1.359375q0.546875 -0.640625 1.375000 -0.640625l57.375000 0.000000q0.781250 0.000000 1.296875 0.640625q0.515625 0.625000 0.515625 1.359375q0.000000 0.734375 -0.515625 1.375000q-0.515625 0.625000 -1.296875 0.625000z"/>
</defs>
<g id="mathtext5">
<g style="fill: #000000" transform="translate(273.933750,59.659062)">
<use xlink:href="#c_61c20b1e4c944de7566e5fda525fb070" transform="translate(0.000000,-2.343750)scale(0.099960)"/>
<use xlink:href="#c_04111b2b7db28f5ad55cf0eace59d749" transform="translate(7.756409,-2.343750)scale(0.099960)"/>
<use xlink:href="#c_37988b1a25cfc4d8a078457ec29628d4" transform="translate(19.493900,-2.343750)scale(0.099960)"/>
<use xlink:href="#c_e86f490bde0b3795f8a34411d82f95e4" transform="translate(27.340765,-2.343750)scale(0.099960)"/>
<use xlink:href="#c_37988b1a25cfc4d8a078457ec29628d4" transform="translate(35.304865,-2.343750)scale(0.099960)"/>
<use xlink:href="#c_f47f2818876b2f1a61c47f270461e46e" transform="translate(43.151730,-2.343750)scale(0.099960)"/>
</g>
</g>
</g>
</g>
</g>
</g>
</svg>
